<svg id="eoIgTpBO4qi1" xmlns="http://www.w3.org/2000/svg" xmlns:xlink="http://www.w3.org/1999/xlink" viewBox="0 0 512 512" shape-rendering="geometricPrecision" text-rendering="geometricPrecision" project-id="62c559baf27a4629a7cc968e7c044fca" export-id="762d236a8c0b43c39cb6699ab080ad3e" cached="false"><circle r="27.5" transform="matrix(9.256387 0 0 9.256387 255.999988 256.000079)" fill="#455ec1"/><circle r="27.5" transform="matrix(7.385619 0 0 7.385619 257.520983 256.000086)" fill="#fdfdfd"/><g transform="matrix(14.763406 0 0 14.763406 78.839127 86.220831)"><path d="M16,13h-8c-1.656854,0-3-1.343146-3-3v-4C5,4.343146,6.343146,3,8,3h8c1.656854,0,3,1.343146,3,3v4c0,1.656854-1.343146,3-3,3ZM8,5c-.552285,0-1,.447715-1,1v4c0,.552285.447715,1,1,1h8c.552285,0,1-.447715,1-1v-4c0-.552285-.447715-1-1-1h-8Z" fill="#455ec1"/><path d="M10,9c-.264767-.003683-.518366-.107266-.71-.29-.332908-.307196-.417739-.799808-.206762-1.200664s.665062-.609828,1.106762-.509336c.066235.009271.130453.02955.19.06.061433.01997.118948.05042.17.09l.16.12c.303452.283798.399808.725667.242061,1.110037s-.536731.631156-.952061.619963Z" fill="#455ec1"/><path d="M14,9c-.406265.002363-.77358-.241304-.929371-.616518s-.069089-.807392.219371-1.093482c.392122-.392122,1.027878-.392122,1.42,0s.392122,1.027878,0,1.42c-.049189.045246-.102791.085447-.16.12-.051052.03958-.108567.07003-.17.09-.059547.03045-.123765.050729-.19.06L14,9Z" fill="#455ec1"/><path d="M12,4c-.552285,0-1-.447715-1-1v-1c0-.552285.447715-1,1-1s1,.447715,1,1v1c0,.552285-.447715,1-1,1Z" fill="#455ec1"/><path d="M9,22c-.552285,0-1-.447715-1-1v-3c0-.552285.447715-1,1-1s1,.447715,1,1v3c0,.552285-.447715,1-1,1Z" fill="#455ec1"/><path d="M15,22c-.552285,0-1-.447715-1-1v-3c0-.552285.447715-1,1-1s1,.447715,1,1v3c0,.552285-.447715,1-1,1Z" fill="#455ec1"/><path d="M15,19h-6c-.552285,0-1-.447715-1-1v-6c0-.552285.447715-1,1-1h6c.552285,0,1,.447715,1,1v6c0,.552285-.447715,1-1,1Zm-5-2h4v-4h-4v4Z" fill="#455ec1"/><path d="M5,17c-.376558-.001141-.72055-.21372-.89-.55-.246924-.491654-.050313-1.090424.44-1.34l4-2c.321181-.193261.723471-.190673,1.042138.006704s.500193.556393.470244.930037-.266343.699162-.612382.843259l-4,2c-.13832.074037-.293123.111877-.45.11Z" fill="#455ec1"/><path d="M19,17c-.156877.001877-.31168-.035963-.45-.11l-4-2c-.346039-.144097-.582432-.469615-.612382-.843259s.151576-.73266.470244-.930037.720957-.199965,1.042138-.006704l4,2c.490313.249576.686924.848346.44,1.34-.16945.33628-.513442.548859-.89.55Z" fill="#455ec1"/></g><rect width="46" height="46" rx="13" ry="13" transform="matrix(1.925662 0 0 2.473502 211.709771 257.466108)" fill="#e687d3"/><rect width="46" height="46" rx="13" ry="13" transform="matrix(1.548661 0 0 1.989244 220.380786 268.511887)" fill="#ddb3fb"/><path d="M50,28.42C23.11,3.6,-10.83,46.93,50,78.94C110.83,46.93,76.89,3.6,50,28.42Z" transform="matrix(.76049 0 0 0.76049 217.975503 276.178254)" fill="#cc5498"/></svg>